<?xml version="1.0" encoding="UTF-8"?>
<svg viewBox="0 0 145.8244 144.63728" xmlns="http://www.w3.org/2000/svg">
 <defs>
  <linearGradient id="a" x1="-344.15" x2="-395.85" y1="274.71" y2="425.4" gradientTransform="matrix(-.65718 0 0 .65718 183.12 114.63)" gradientUnits="userSpaceOnUse">
   <stop stop-color="#fff" offset="0"/>
   <stop stop-color="#fff" stop-opacity="0" offset="1"/>
  </linearGradient>
 </defs>
 <g transform="matrix(.9 0 0 .9 -328.43 -279.28)">
  <path transform="scale(-1,1)" d="m-479.41 318.34h66.963a39.431 39.431 0 0 1 39.431 39.431v65.776a39.431 39.431 0 0 1 -39.431 39.431h-66.963a39.431 39.431 0 0 1 -39.431 -39.431v-65.776a39.431 39.431 0 0 1 39.431 -39.431" fill="#8ae234" fill-rule="evenodd"/>
  <path d="m461.6 390.66 23.512-23.512c2.4632-2.4633 3.6947-5.1877 3.6948-8.1733-0.14932-2.6872-1.3809-5.1877-3.6948-7.5015-2.09-2.09-4.5532-3.2843-7.3896-3.5828-2.9111-0.22399-5.6728 0.97029-8.2853 3.5828l-23.512 23.512-23.512-23.512c-2.3885-2.3886-5.0756-3.5829-8.0614-3.5828-2.911 0.22386-5.4488 1.4181-7.6135 3.5828-1.866 1.866-2.9483 4.2918-3.2469 7.2776-0.29852 3.1349 0.7838 5.934 3.2469 8.3972l23.512 23.512-23.512 23.512c-2.09 2.0898-3.2469 4.8143-3.4709 8.1733 0.22399 2.9109 1.3809 5.4114 3.4709 7.5015 1.9407 1.9406 4.4039 3.1348 7.3896 3.5828 2.9111 0.22377 5.6728-0.97049 8.2853-3.5828l23.512-23.512 23.512 23.512c2.4632 2.463 5.1876 3.5454 8.1733 3.2469 3.0603-0.22407 5.5608-1.3064 7.5015-3.2469 1.7914-1.7916 2.8737-4.2174 3.2469-7.2776 0.44781-2.9858-0.63449-5.7849-3.2469-8.3972l-23.512-23.512" fill="#73d216"/>
  <path d="m460.38 390.66 21.678-21.678c2.271-2.2711 3.4066-4.7831 3.4066-7.5358-0.13767-2.4776-1.2732-4.7831-3.4066-6.9164-1.927-1.927-4.1981-3.0282-6.8132-3.3034-2.684-0.20653-5.2304 0.8946-7.639 3.3034l-21.678 21.678-21.678-21.678c-2.2022-2.2023-4.6798-3.3034-7.4326-3.3034-2.684 0.20639-5.0238 1.3075-7.0196 3.3034-1.7205 1.7204-2.7184 3.9571-2.9937 6.71-0.27524 2.8904 0.72265 5.4711 2.9937 7.7423l21.678 21.678-21.678 21.678c-1.9269 1.9268-2.9936 4.4388-3.2001 7.5358 0.2065 2.6838 1.2732 4.9893 3.2001 6.9164 1.7894 1.7892 4.0604 2.8903 6.8132 3.3034 2.684 0.20632 5.2304-0.8948 7.639-3.3034l21.678-21.678 21.678 21.678c2.271 2.2709 4.783 3.2688 7.5358 2.9937 2.8216-0.2066 5.1271-1.2045 6.9164-2.9937 1.6516-1.6518 2.6495-3.8885 2.9937-6.71 0.41289-2.7529-0.585-5.3337-2.9937-7.7423l-21.678-21.678" fill="#fff"/>
  <path d="m480.32 324.53h-68.771c-18.204 0-32.859 14.655-32.859 32.859v66.553c0.58923 14.21 2.8558 5.2266 7.17-10.51 5.0141-18.289 21.343-34.273 41.229-46.253 15.178-9.1435 32.168-14.982 63.093-15.538 17.539-0.31499 15.99-22.579-9.863-27.112z" fill="url(#a)" fill-rule="evenodd"/>
 </g>
</svg>
